<svg width="226" height="200" viewBox="0 0 226 200" fill="none" xmlns="http://www.w3.org/2000/svg">
<path d="M159.933 0C133.547 0 119.573 12.722 112.62 22.892C105.676 12.722 91.723 0 65.392 0C33.897 0 0 20.961 0 66.983C0 85.121 3.938 99.515 13.166 115.115C22.149 130.299 41.172 149.012 69.707 170.737C80.844 179.216 91.103 186.349 97.749 190.84C110.52 199.471 111.02 199.56 112.563 199.561C112.641 199.563 112.716 199.564 112.791 199.564C114.25 199.564 115.255 199.099 127.464 190.889C134.114 186.416 144.382 179.31 155.529 170.85C184.099 149.169 203.175 130.417 212.228 115.116C221.44 99.545 225.371 85.149 225.371 66.984C225.371 20.961 191.45 0 159.933 0Z" fill="#F06095"/>
</svg>
